<?xml version="1.0" encoding="UTF-8" standalone="no"?>
<!DOCTYPE svg PUBLIC "-//W3C//DTD SVG 1.1//EN"
 "http://www.w3.org/Graphics/SVG/1.1/DTD/svg11.dtd">
<!-- Generated by graphviz version 2.43.0 (0)
 -->
<!-- Title: Topology Pages: 1 -->
<svg width="1780pt" height="548pt"
 viewBox="0.00 0.00 1779.63 548.00" xmlns="http://www.w3.org/2000/svg" xmlns:xlink="http://www.w3.org/1999/xlink">
<g id="graph0" class="graph" transform="scale(1 1) rotate(0) translate(4 544)">
<title>Topology</title>
<polygon fill="white" stroke="transparent" points="-4,4 -4,-544 1775.63,-544 1775.63,4 -4,4"/>
<!-- V0 -->
<g id="node1" class="node">
<title>V0</title>
<ellipse fill="none" stroke="black" cx="297.04" cy="-162" rx="72.59" ry="18"/>
<text text-anchor="middle" x="297.04" y="-158.3" font-family="Times,serif" font-size="14.00">media0_in mi</text>
</g>
<!-- V1 -->
<g id="node2" class="node">
<title>V1</title>
<ellipse fill="none" stroke="black" cx="277.04" cy="-90" rx="85.29" ry="18"/>
<text text-anchor="middle" x="277.04" y="-86.3" font-family="Times,serif" font-size="14.00">media0_in cpr 0</text>
</g>
<!-- V0&#45;&#45;V1 -->
<g id="edge1" class="edge">
<title>V0&#45;&#45;V1</title>
<path fill="none" stroke="black" d="M292.1,-143.7C289,-132.85 285.02,-118.92 281.93,-108.1"/>
</g>
<!-- V2 -->
<g id="node3" class="node">
<title>V2</title>
<ellipse fill="none" stroke="black" cx="277.04" cy="-18" rx="89.88" ry="18"/>
<text text-anchor="middle" x="277.04" y="-14.3" font-family="Times,serif" font-size="14.00">System Playback</text>
</g>
<!-- V1&#45;&#45;V2 -->
<g id="edge2" class="edge">
<title>V1&#45;&#45;V2</title>
<path fill="none" stroke="black" d="M277.04,-71.7C277.04,-60.85 277.04,-46.92 277.04,-36.1"/>
</g>
<!-- V3 -->
<g id="node4" class="node">
<title>V3</title>
<ellipse fill="none" stroke="black" cx="447.04" cy="-378" rx="90.98" ry="18"/>
<text text-anchor="middle" x="447.04" y="-374.3" font-family="Times,serif" font-size="14.00">media0_out cpr 6</text>
</g>
<!-- V4 -->
<g id="node5" class="node">
<title>V4</title>
<ellipse fill="none" stroke="black" cx="447.04" cy="-306" rx="81.49" ry="18"/>
<text text-anchor="middle" x="447.04" y="-302.3" font-family="Times,serif" font-size="14.00">media0_out mo</text>
</g>
<!-- V3&#45;&#45;V4 -->
<g id="edge9" class="edge">
<title>V3&#45;&#45;V4</title>
<path fill="none" stroke="black" d="M447.04,-359.7C447.04,-348.85 447.04,-334.92 447.04,-324.1"/>
</g>
<!-- S40 -->
<g id="node41" class="node">
<title>S40</title>
<ellipse fill="none" stroke="black" cx="300.04" cy="-234" rx="27" ry="18"/>
<text text-anchor="middle" x="300.04" y="-230.3" font-family="Times,serif" font-size="14.00">S</text>
</g>
<!-- V4&#45;&#45;S40 -->
<g id="edge3" class="edge">
<title>V4&#45;&#45;S40</title>
<path fill="none" stroke="black" d="M414.42,-289.46C386.17,-276.01 346.1,-256.93 321.66,-245.29"/>
</g>
<!-- S41 -->
<g id="node42" class="node">
<title>S41</title>
<ellipse fill="none" stroke="black" cx="444.04" cy="-234" rx="27" ry="18"/>
<text text-anchor="middle" x="444.04" y="-230.3" font-family="Times,serif" font-size="14.00">S</text>
</g>
<!-- V4&#45;&#45;S41 -->
<g id="edge5" class="edge">
<title>V4&#45;&#45;S41</title>
<path fill="none" stroke="black" d="M446.3,-287.7C445.83,-276.85 445.24,-262.92 444.77,-252.1"/>
</g>
<!-- S42 -->
<g id="node43" class="node">
<title>S42</title>
<ellipse fill="none" stroke="black" cx="660.04" cy="-234" rx="27" ry="18"/>
<text text-anchor="middle" x="660.04" y="-230.3" font-family="Times,serif" font-size="14.00">S</text>
</g>
<!-- V4&#45;&#45;S42 -->
<g id="edge7" class="edge">
<title>V4&#45;&#45;S42</title>
<path fill="none" stroke="black" d="M498.07,-291.91C533.8,-282.21 582.41,-267.96 624.04,-252 628.95,-250.12 634.11,-247.86 638.95,-245.61"/>
</g>
<!-- V5 -->
<g id="node6" class="node">
<title>V5</title>
<ellipse fill="none" stroke="black" cx="447.04" cy="-450" rx="85.59" ry="18"/>
<text text-anchor="middle" x="447.04" y="-446.3" font-family="Times,serif" font-size="14.00">System Capture</text>
</g>
<!-- V5&#45;&#45;V3 -->
<g id="edge10" class="edge">
<title>V5&#45;&#45;V3</title>
<path fill="none" stroke="black" d="M447.04,-431.7C447.04,-420.85 447.04,-406.92 447.04,-396.1"/>
</g>
<!-- V6 -->
<g id="node7" class="node">
<title>V6</title>
<ellipse fill="none" stroke="black" cx="176.04" cy="-378" rx="89.08" ry="18"/>
<text text-anchor="middle" x="176.04" y="-374.3" font-family="Times,serif" font-size="14.00">codec0_out cpr 4</text>
</g>
<!-- V7 -->
<g id="node8" class="node">
<title>V7</title>
<ellipse fill="none" stroke="black" cx="102.04" cy="-306" rx="68.79" ry="18"/>
<text text-anchor="middle" x="102.04" y="-302.3" font-family="Times,serif" font-size="14.00">codec0_iv_in</text>
</g>
<!-- V6&#45;&#45;V7 -->
<g id="edge17" class="edge">
<title>V6&#45;&#45;V7</title>
<path fill="none" stroke="black" d="M158.13,-360.05C146.41,-348.97 131.17,-334.55 119.53,-323.55"/>
</g>
<!-- V8 -->
<g id="node9" class="node">
<title>V8</title>
<ellipse fill="none" stroke="black" cx="268.04" cy="-306" rx="79.09" ry="18"/>
<text text-anchor="middle" x="268.04" y="-302.3" font-family="Times,serif" font-size="14.00">codec0_out mo</text>
</g>
<!-- V6&#45;&#45;V8 -->
<g id="edge20" class="edge">
<title>V6&#45;&#45;V8</title>
<path fill="none" stroke="black" d="M197.84,-360.41C212.51,-349.25 231.76,-334.6 246.39,-323.47"/>
</g>
<!-- S46 -->
<g id="node47" class="node">
<title>S46</title>
<ellipse fill="none" stroke="black" cx="102.04" cy="-234" rx="27" ry="18"/>
<text text-anchor="middle" x="102.04" y="-230.3" font-family="Times,serif" font-size="14.00">S</text>
</g>
<!-- V7&#45;&#45;S46 -->
<g id="edge18" class="edge">
<title>V7&#45;&#45;S46</title>
<path fill="none" stroke="black" d="M102.04,-287.7C102.04,-276.85 102.04,-262.92 102.04,-252.1"/>
</g>
<!-- S43 -->
<g id="node44" class="node">
<title>S43</title>
<ellipse fill="none" stroke="black" cx="228.04" cy="-234" rx="27" ry="18"/>
<text text-anchor="middle" x="228.04" y="-230.3" font-family="Times,serif" font-size="14.00">S</text>
</g>
<!-- V8&#45;&#45;S43 -->
<g id="edge11" class="edge">
<title>V8&#45;&#45;S43</title>
<path fill="none" stroke="black" d="M258.36,-288.05C251.98,-276.89 243.67,-262.34 237.36,-251.31"/>
</g>
<!-- S44 -->
<g id="node45" class="node">
<title>S44</title>
<ellipse fill="none" stroke="black" cx="372.04" cy="-234" rx="27" ry="18"/>
<text text-anchor="middle" x="372.04" y="-230.3" font-family="Times,serif" font-size="14.00">S</text>
</g>
<!-- V8&#45;&#45;S44 -->
<g id="edge13" class="edge">
<title>V8&#45;&#45;S44</title>
<path fill="none" stroke="black" d="M292.16,-288.76C310.88,-276.16 336.45,-258.96 353.57,-247.43"/>
</g>
<!-- S45 -->
<g id="node46" class="node">
<title>S45</title>
<ellipse fill="none" stroke="black" cx="588.04" cy="-234" rx="27" ry="18"/>
<text text-anchor="middle" x="588.04" y="-230.3" font-family="Times,serif" font-size="14.00">S</text>
</g>
<!-- V8&#45;&#45;S45 -->
<g id="edge15" class="edge">
<title>V8&#45;&#45;S45</title>
<path fill="none" stroke="black" d="M326.44,-293.79C336.64,-291.85 347.15,-289.86 357.04,-288 443.66,-271.73 468.16,-279.04 552.04,-252 557.17,-250.35 562.52,-248.12 567.47,-245.83"/>
</g>
<!-- V9 -->
<g id="node10" class="node">
<title>V9</title>
<ellipse fill="none" stroke="black" cx="176.04" cy="-450" rx="62.29" ry="18"/>
<text text-anchor="middle" x="176.04" y="-446.3" font-family="Times,serif" font-size="14.00">codec0_out</text>
</g>
<!-- V9&#45;&#45;V6 -->
<g id="edge21" class="edge">
<title>V9&#45;&#45;V6</title>
<path fill="none" stroke="black" d="M176.04,-431.7C176.04,-420.85 176.04,-406.92 176.04,-396.1"/>
</g>
<!-- V10 -->
<g id="node11" class="node">
<title>V10</title>
<ellipse fill="none" stroke="black" cx="102.04" cy="-162" rx="102.08" ry="18"/>
<text text-anchor="middle" x="102.04" y="-158.3" font-family="Times,serif" font-size="14.00">codec0_lp_in cpr 14</text>
</g>
<!-- V11 -->
<g id="node12" class="node">
<title>V11</title>
<ellipse fill="none" stroke="black" cx="102.04" cy="-90" rx="69.59" ry="18"/>
<text text-anchor="middle" x="102.04" y="-86.3" font-family="Times,serif" font-size="14.00">codec0_lp_in</text>
</g>
<!-- V10&#45;&#45;V11 -->
<g id="edge22" class="edge">
<title>V10&#45;&#45;V11</title>
<path fill="none" stroke="black" d="M102.04,-143.7C102.04,-132.85 102.04,-118.92 102.04,-108.1"/>
</g>
<!-- V12 -->
<g id="node13" class="node">
<title>V12</title>
<ellipse fill="none" stroke="black" cx="732.04" cy="-378" rx="89.08" ry="18"/>
<text text-anchor="middle" x="732.04" y="-374.3" font-family="Times,serif" font-size="14.00">codec1_out cpr 5</text>
</g>
<!-- V13 -->
<g id="node14" class="node">
<title>V13</title>
<ellipse fill="none" stroke="black" cx="732.04" cy="-306" rx="79.09" ry="18"/>
<text text-anchor="middle" x="732.04" y="-302.3" font-family="Times,serif" font-size="14.00">codec1_out mo</text>
</g>
<!-- V12&#45;&#45;V13 -->
<g id="edge29" class="edge">
<title>V12&#45;&#45;V13</title>
<path fill="none" stroke="black" d="M732.04,-359.7C732.04,-348.85 732.04,-334.92 732.04,-324.1"/>
</g>
<!-- S47 -->
<g id="node48" class="node">
<title>S47</title>
<ellipse fill="none" stroke="black" cx="516.04" cy="-234" rx="27" ry="18"/>
<text text-anchor="middle" x="516.04" y="-230.3" font-family="Times,serif" font-size="14.00">S</text>
</g>
<!-- V13&#45;&#45;S47 -->
<g id="edge23" class="edge">
<title>V13&#45;&#45;S47</title>
<path fill="none" stroke="black" d="M680.91,-292.21C644.5,-282.56 594.66,-268.23 552.04,-252 547.13,-250.13 541.96,-247.87 537.13,-245.62"/>
</g>
<!-- S48 -->
<g id="node49" class="node">
<title>S48</title>
<ellipse fill="none" stroke="black" cx="732.04" cy="-234" rx="27" ry="18"/>
<text text-anchor="middle" x="732.04" y="-230.3" font-family="Times,serif" font-size="14.00">S</text>
</g>
<!-- V13&#45;&#45;S48 -->
<g id="edge25" class="edge">
<title>V13&#45;&#45;S48</title>
<path fill="none" stroke="black" d="M732.04,-287.7C732.04,-276.85 732.04,-262.92 732.04,-252.1"/>
</g>
<!-- S49 -->
<g id="node50" class="node">
<title>S49</title>
<ellipse fill="none" stroke="black" cx="804.04" cy="-234" rx="27" ry="18"/>
<text text-anchor="middle" x="804.04" y="-230.3" font-family="Times,serif" font-size="14.00">S</text>
</g>
<!-- V13&#45;&#45;S49 -->
<g id="edge27" class="edge">
<title>V13&#45;&#45;S49</title>
<path fill="none" stroke="black" d="M749.1,-288.41C761.25,-276.61 777.41,-260.89 789.05,-249.57"/>
</g>
<!-- V14 -->
<g id="node15" class="node">
<title>V14</title>
<ellipse fill="none" stroke="black" cx="732.04" cy="-450" rx="62.29" ry="18"/>
<text text-anchor="middle" x="732.04" y="-446.3" font-family="Times,serif" font-size="14.00">codec1_out</text>
</g>
<!-- V14&#45;&#45;V12 -->
<g id="edge30" class="edge">
<title>V14&#45;&#45;V12</title>
<path fill="none" stroke="black" d="M732.04,-431.7C732.04,-420.85 732.04,-406.92 732.04,-396.1"/>
</g>
<!-- V15 -->
<g id="node16" class="node">
<title>V15</title>
<ellipse fill="none" stroke="black" cx="460.04" cy="-162" rx="70.69" ry="18"/>
<text text-anchor="middle" x="460.04" y="-158.3" font-family="Times,serif" font-size="14.00">codec0_in mi</text>
</g>
<!-- V16 -->
<g id="node17" class="node">
<title>V16</title>
<ellipse fill="none" stroke="black" cx="463.04" cy="-90" rx="83.39" ry="18"/>
<text text-anchor="middle" x="463.04" y="-86.3" font-family="Times,serif" font-size="14.00">codec0_in cpr 1</text>
</g>
<!-- V15&#45;&#45;V16 -->
<g id="edge31" class="edge">
<title>V15&#45;&#45;V16</title>
<path fill="none" stroke="black" d="M460.78,-143.7C461.25,-132.85 461.84,-118.92 462.31,-108.1"/>
</g>
<!-- V17 -->
<g id="node18" class="node">
<title>V17</title>
<ellipse fill="none" stroke="black" cx="463.04" cy="-18" rx="55.79" ry="18"/>
<text text-anchor="middle" x="463.04" y="-14.3" font-family="Times,serif" font-size="14.00">codec0_in</text>
</g>
<!-- V16&#45;&#45;V17 -->
<g id="edge32" class="edge">
<title>V16&#45;&#45;V17</title>
<path fill="none" stroke="black" d="M463.04,-71.7C463.04,-60.85 463.04,-46.92 463.04,-36.1"/>
</g>
<!-- V18 -->
<g id="node19" class="node">
<title>V18</title>
<ellipse fill="none" stroke="black" cx="675.04" cy="-162" rx="92.08" ry="18"/>
<text text-anchor="middle" x="675.04" y="-158.3" font-family="Times,serif" font-size="14.00">dmic01_hifi_in mi</text>
</g>
<!-- V19 -->
<g id="node20" class="node">
<title>V19</title>
<ellipse fill="none" stroke="black" cx="689.04" cy="-90" rx="104.78" ry="18"/>
<text text-anchor="middle" x="689.04" y="-86.3" font-family="Times,serif" font-size="14.00">dmic01_hifi_in cpr 3</text>
</g>
<!-- V18&#45;&#45;V19 -->
<g id="edge33" class="edge">
<title>V18&#45;&#45;V19</title>
<path fill="none" stroke="black" d="M678.5,-143.7C680.67,-132.85 683.46,-118.92 685.62,-108.1"/>
</g>
<!-- V20 -->
<g id="node21" class="node">
<title>V20</title>
<ellipse fill="none" stroke="black" cx="918.04" cy="-18" rx="64.19" ry="18"/>
<text text-anchor="middle" x="918.04" y="-14.3" font-family="Times,serif" font-size="14.00">dmic01_hifi</text>
</g>
<!-- V19&#45;&#45;V20 -->
<g id="edge34" class="edge">
<title>V19&#45;&#45;V20</title>
<path fill="none" stroke="black" d="M737.89,-74.07C779,-61.5 837.17,-43.72 876.18,-31.79"/>
</g>
<!-- V21 -->
<g id="node22" class="node">
<title>V21</title>
<ellipse fill="none" stroke="black" cx="1440.04" cy="-450" rx="100.98" ry="18"/>
<text text-anchor="middle" x="1440.04" y="-446.3" font-family="Times,serif" font-size="14.00">hdmi1_pt_out cpr 8</text>
</g>
<!-- V22 -->
<g id="node23" class="node">
<title>V22</title>
<ellipse fill="none" stroke="black" cx="1440.04" cy="-378" rx="100.98" ry="18"/>
<text text-anchor="middle" x="1440.04" y="-374.3" font-family="Times,serif" font-size="14.00">hdmi1_pt_out cpr 7</text>
</g>
<!-- V21&#45;&#45;V22 -->
<g id="edge35" class="edge">
<title>V21&#45;&#45;V22</title>
<path fill="none" stroke="black" d="M1440.04,-431.7C1440.04,-420.85 1440.04,-406.92 1440.04,-396.1"/>
</g>
<!-- V23 -->
<g id="node24" class="node">
<title>V23</title>
<ellipse fill="none" stroke="black" cx="1440.04" cy="-306" rx="89.08" ry="18"/>
<text text-anchor="middle" x="1440.04" y="-302.3" font-family="Times,serif" font-size="14.00">HDMI1 Playback</text>
</g>
<!-- V22&#45;&#45;V23 -->
<g id="edge36" class="edge">
<title>V22&#45;&#45;V23</title>
<path fill="none" stroke="black" d="M1440.04,-359.7C1440.04,-348.85 1440.04,-334.92 1440.04,-324.1"/>
</g>
<!-- V24 -->
<g id="node25" class="node">
<title>V24</title>
<ellipse fill="none" stroke="black" cx="1440.04" cy="-522" rx="59.59" ry="18"/>
<text text-anchor="middle" x="1440.04" y="-518.3" font-family="Times,serif" font-size="14.00">iDisp1_out</text>
</g>
<!-- V24&#45;&#45;V21 -->
<g id="edge37" class="edge">
<title>V24&#45;&#45;V21</title>
<path fill="none" stroke="black" d="M1440.04,-503.7C1440.04,-492.85 1440.04,-478.92 1440.04,-468.1"/>
</g>
<!-- V25 -->
<g id="node26" class="node">
<title>V25</title>
<ellipse fill="none" stroke="black" cx="1224.04" cy="-378" rx="96.68" ry="18"/>
<text text-anchor="middle" x="1224.04" y="-374.3" font-family="Times,serif" font-size="14.00">media2_out cpr 10</text>
</g>
<!-- V26 -->
<g id="node27" class="node">
<title>V26</title>
<ellipse fill="none" stroke="black" cx="1134.04" cy="-234" rx="69.59" ry="18"/>
<text text-anchor="middle" x="1134.04" y="-230.3" font-family="Times,serif" font-size="14.00">kpd_in kpb 0</text>
</g>
<!-- V25&#45;&#45;V26 -->
<g id="edge38" class="edge">
<title>V25&#45;&#45;V26</title>
<path fill="none" stroke="black" d="M1213.18,-359.87C1195.89,-332.58 1162.26,-279.52 1144.94,-252.19"/>
</g>
<!-- V30 -->
<g id="node31" class="node">
<title>V30</title>
<ellipse fill="none" stroke="black" cx="1134.04" cy="-162" rx="100.98" ry="18"/>
<text text-anchor="middle" x="1134.04" y="-158.3" font-family="Times,serif" font-size="14.00">kpd_in mic_select 0</text>
</g>
<!-- V26&#45;&#45;V30 -->
<g id="edge42" class="edge">
<title>V26&#45;&#45;V30</title>
<path fill="none" stroke="black" d="M1134.04,-215.7C1134.04,-204.85 1134.04,-190.92 1134.04,-180.1"/>
</g>
<!-- V27 -->
<g id="node28" class="node">
<title>V27</title>
<ellipse fill="none" stroke="black" cx="1134.04" cy="-450" rx="96.68" ry="18"/>
<text text-anchor="middle" x="1134.04" y="-446.3" font-family="Times,serif" font-size="14.00">media2_out cpr 11</text>
</g>
<!-- V27&#45;&#45;V25 -->
<g id="edge44" class="edge">
<title>V27&#45;&#45;V25</title>
<path fill="none" stroke="black" d="M1155.37,-432.41C1169.61,-421.33 1188.28,-406.82 1202.55,-395.71"/>
</g>
<!-- V28 -->
<g id="node29" class="node">
<title>V28</title>
<ellipse fill="none" stroke="black" cx="1044.04" cy="-378" rx="65.79" ry="18"/>
<text text-anchor="middle" x="1044.04" y="-374.3" font-family="Times,serif" font-size="14.00">hwd_in sink</text>
</g>
<!-- V27&#45;&#45;V28 -->
<g id="edge39" class="edge">
<title>V27&#45;&#45;V28</title>
<path fill="none" stroke="black" d="M1112.71,-432.41C1098.26,-421.17 1079.26,-406.39 1064.91,-395.23"/>
</g>
<!-- V29 -->
<g id="node30" class="node">
<title>V29</title>
<ellipse fill="none" stroke="black" cx="1063.04" cy="-306" rx="76.09" ry="18"/>
<text text-anchor="middle" x="1063.04" y="-302.3" font-family="Times,serif" font-size="14.00">hwd_in cpr 12</text>
</g>
<!-- V28&#45;&#45;V29 -->
<g id="edge46" class="edge">
<title>V28&#45;&#45;V29</title>
<path fill="none" stroke="black" d="M1048.74,-359.7C1051.68,-348.85 1055.46,-334.92 1058.4,-324.1"/>
</g>
<!-- V29&#45;&#45;V26 -->
<g id="edge40" class="edge">
<title>V29&#45;&#45;V26</title>
<path fill="none" stroke="black" d="M1079.87,-288.41C1091.02,-277.41 1105.61,-263.03 1116.84,-251.96"/>
</g>
<!-- V31 -->
<g id="node32" class="node">
<title>V31</title>
<ellipse fill="none" stroke="black" cx="1117.04" cy="-90" rx="67.69" ry="18"/>
<text text-anchor="middle" x="1117.04" y="-86.3" font-family="Times,serif" font-size="14.00">kpd_in cpr 9</text>
</g>
<!-- V30&#45;&#45;V31 -->
<g id="edge41" class="edge">
<title>V30&#45;&#45;V31</title>
<path fill="none" stroke="black" d="M1129.84,-143.7C1127.2,-132.85 1123.82,-118.92 1121.19,-108.1"/>
</g>
<!-- V31&#45;&#45;V20 -->
<g id="edge43" class="edge">
<title>V31&#45;&#45;V20</title>
<path fill="none" stroke="black" d="M1077.72,-75.17C1042.61,-62.82 991.48,-44.83 956.6,-32.56"/>
</g>
<!-- V32 -->
<g id="node33" class="node">
<title>V32</title>
<ellipse fill="none" stroke="black" cx="1134.04" cy="-522" rx="98.28" ry="18"/>
<text text-anchor="middle" x="1134.04" y="-518.3" font-family="Times,serif" font-size="14.00">Reference Capture</text>
</g>
<!-- V32&#45;&#45;V27 -->
<g id="edge45" class="edge">
<title>V32&#45;&#45;V27</title>
<path fill="none" stroke="black" d="M1134.04,-503.7C1134.04,-492.85 1134.04,-478.92 1134.04,-468.1"/>
</g>
<!-- V33 -->
<g id="node34" class="node">
<title>V33</title>
<ellipse fill="none" stroke="black" cx="918.04" cy="-162" rx="96.68" ry="18"/>
<text text-anchor="middle" x="918.04" y="-158.3" font-family="Times,serif" font-size="14.00">mch_cap_in cpr 16</text>
</g>
<!-- V34 -->
<g id="node35" class="node">
<title>V34</title>
<ellipse fill="none" stroke="black" cx="918.04" cy="-90" rx="96.68" ry="18"/>
<text text-anchor="middle" x="918.04" y="-86.3" font-family="Times,serif" font-size="14.00">mch_cap_in cpr 15</text>
</g>
<!-- V33&#45;&#45;V34 -->
<g id="edge47" class="edge">
<title>V33&#45;&#45;V34</title>
<path fill="none" stroke="black" d="M918.04,-143.7C918.04,-132.85 918.04,-118.92 918.04,-108.1"/>
</g>
<!-- V34&#45;&#45;V20 -->
<g id="edge49" class="edge">
<title>V34&#45;&#45;V20</title>
<path fill="none" stroke="black" d="M918.04,-71.7C918.04,-60.85 918.04,-46.92 918.04,-36.1"/>
</g>
<!-- V35 -->
<g id="node36" class="node">
<title>V35</title>
<ellipse fill="none" stroke="black" cx="927.04" cy="-234" rx="77.99" ry="18"/>
<text text-anchor="middle" x="927.04" y="-230.3" font-family="Times,serif" font-size="14.00">DMIC Capture</text>
</g>
<!-- V35&#45;&#45;V33 -->
<g id="edge48" class="edge">
<title>V35&#45;&#45;V33</title>
<path fill="none" stroke="black" d="M924.82,-215.7C923.42,-204.85 921.63,-190.92 920.24,-180.1"/>
</g>
<!-- V36 -->
<g id="node37" class="node">
<title>V36</title>
<ellipse fill="none" stroke="black" cx="1665.04" cy="-450" rx="106.68" ry="18"/>
<text text-anchor="middle" x="1665.04" y="-446.3" font-family="Times,serif" font-size="14.00">hdmi2_pt_out cpr 18</text>
</g>
<!-- V37 -->
<g id="node38" class="node">
<title>V37</title>
<ellipse fill="none" stroke="black" cx="1665.04" cy="-378" rx="106.68" ry="18"/>
<text text-anchor="middle" x="1665.04" y="-374.3" font-family="Times,serif" font-size="14.00">hdmi2_pt_out cpr 17</text>
</g>
<!-- V36&#45;&#45;V37 -->
<g id="edge50" class="edge">
<title>V36&#45;&#45;V37</title>
<path fill="none" stroke="black" d="M1665.04,-431.7C1665.04,-420.85 1665.04,-406.92 1665.04,-396.1"/>
</g>
<!-- V38 -->
<g id="node39" class="node">
<title>V38</title>
<ellipse fill="none" stroke="black" cx="1665.04" cy="-306" rx="89.08" ry="18"/>
<text text-anchor="middle" x="1665.04" y="-302.3" font-family="Times,serif" font-size="14.00">HDMI2 Playback</text>
</g>
<!-- V37&#45;&#45;V38 -->
<g id="edge51" class="edge">
<title>V37&#45;&#45;V38</title>
<path fill="none" stroke="black" d="M1665.04,-359.7C1665.04,-348.85 1665.04,-334.92 1665.04,-324.1"/>
</g>
<!-- V39 -->
<g id="node40" class="node">
<title>V39</title>
<ellipse fill="none" stroke="black" cx="1665.04" cy="-522" rx="59.59" ry="18"/>
<text text-anchor="middle" x="1665.04" y="-518.3" font-family="Times,serif" font-size="14.00">iDisp2_out</text>
</g>
<!-- V39&#45;&#45;V36 -->
<g id="edge52" class="edge">
<title>V39&#45;&#45;V36</title>
<path fill="none" stroke="black" d="M1665.04,-503.7C1665.04,-492.85 1665.04,-478.92 1665.04,-468.1"/>
</g>
<!-- S40&#45;&#45;V0 -->
<g id="edge4" class="edge">
<title>S40&#45;&#45;V0</title>
<path fill="none" stroke="black" d="M299.3,-215.7C298.83,-204.85 298.24,-190.92 297.77,-180.1"/>
</g>
<!-- S41&#45;&#45;V15 -->
<g id="edge6" class="edge">
<title>S41&#45;&#45;V15</title>
<path fill="none" stroke="black" d="M447.91,-216.05C450.39,-205.21 453.6,-191.18 456.09,-180.28"/>
</g>
<!-- S42&#45;&#45;V18 -->
<g id="edge8" class="edge">
<title>S42&#45;&#45;V18</title>
<path fill="none" stroke="black" d="M663.67,-216.05C666,-205.21 669,-191.18 671.34,-180.28"/>
</g>
<!-- S43&#45;&#45;V0 -->
<g id="edge12" class="edge">
<title>S43&#45;&#45;V0</title>
<path fill="none" stroke="black" d="M242.34,-218.5C253.47,-207.2 268.93,-191.51 280.58,-179.7"/>
</g>
<!-- S44&#45;&#45;V15 -->
<g id="edge14" class="edge">
<title>S44&#45;&#45;V15</title>
<path fill="none" stroke="black" d="M389.01,-219.5C403.39,-208.06 424.07,-191.61 439.41,-179.41"/>
</g>
<!-- S45&#45;&#45;V18 -->
<g id="edge16" class="edge">
<title>S45&#45;&#45;V18</title>
<path fill="none" stroke="black" d="M604.82,-219.5C618.94,-208.14 639.19,-191.84 654.33,-179.67"/>
</g>
<!-- S46&#45;&#45;V10 -->
<g id="edge19" class="edge">
<title>S46&#45;&#45;V10</title>
<path fill="none" stroke="black" d="M102.04,-215.7C102.04,-204.85 102.04,-190.92 102.04,-180.1"/>
</g>
<!-- S47&#45;&#45;V0 -->
<g id="edge24" class="edge">
<title>S47&#45;&#45;V0</title>
<path fill="none" stroke="black" d="M494.96,-222.36C490.12,-220.11 484.95,-217.86 480.04,-216 435.95,-199.33 384.25,-184.79 347.06,-175.18"/>
</g>
<!-- S48&#45;&#45;V15 -->
<g id="edge26" class="edge">
<title>S48&#45;&#45;V15</title>
<path fill="none" stroke="black" d="M711.43,-222.31C706.47,-220.02 701.14,-217.75 696.04,-216 636.87,-195.66 566.63,-181.05 518.25,-172.38"/>
</g>
<!-- S49&#45;&#45;V18 -->
<g id="edge28" class="edge">
<title>S49&#45;&#45;V18</title>
<path fill="none" stroke="black" d="M783.6,-221.91C762.43,-210.42 729.13,-192.35 704.99,-179.25"/>
</g>
</g>
</svg>
